<?xml version="1.0" encoding="UTF-8"?>
<!-- Generator: Adobe Illustrator 23.1.0, SVG Export Plug-In . SVG Version: 6.00 Build 0)  -->
<svg version="1.1" id="Layer_1" xmlns="http://www.w3.org/2000/svg" xmlns:xlink="http://www.w3.org/1999/xlink" x="0px" y="0px" viewBox="0 0 532.91 127.56" style="enable-background:new 0 0 532.91 127.56;" xml:space="preserve">
<style type="text/css">
	.st0{fill:#EE4944;}
</style>
<g id="XMLID_13_">
	<path id="XMLID_26_" class="st0" d="M178.58,2.72c-0.92-1.22-2.44-1.83-4.56-1.83l-48.56,0l-48.1,0   C46.84,0.94,28.82,11.53,23.29,32.64L2.85,110.15c-0.16,0.71-0.26,1.52-0.29,2.44c-0.03,0.92,0.42,1.99,1.34,3.22   c0.92,1.22,2.44,1.83,4.56,1.83l91.1,0l5.56,0c17.27-0.03,30.53-3.44,39.8-10.22h-11.76c-1.75,0-3.25-0.59-4.5-1.78   c-1.25-1.19-1.88-2.65-1.88-4.4V17.49c0-1.75,0.63-3.25,1.88-4.5c1.25-1.25,2.75-1.88,4.5-1.88h12.49c1.84,0,3.37,0.63,4.6,1.88   c1.23,1.25,1.85,2.75,1.85,4.5v83.02c3.24-4.13,5.61-8.99,7.08-14.61l20.44-77.51c0.16-0.71,0.26-1.52,0.29-2.44   C179.95,5.01,179.5,3.94,178.58,2.72z M119.76,101.25c0,1.75-0.63,3.21-1.88,4.4c-1.25,1.19-2.75,1.78-4.5,1.78h-12.63   c-1.84,0-3.35-0.59-4.53-1.78c-1.19-1.19-1.78-2.7-1.78-4.53V84.19H46.68l-4.5,16.93c-0.45,1.84-1.46,3.35-3.02,4.53   c-1.57,1.19-3.22,1.78-4.97,1.78H20.95c-1.75,0-3-0.5-3.76-1.51c-0.76-1.01-1.13-1.89-1.11-2.65c0.02-0.76,0.1-1.43,0.24-2.02   L33.18,37.3c4.57-17.42,19.43-26.15,44.6-26.2h36.21c1.66,0,3.03,0.63,4.13,1.88c1.1,1.25,1.65,2.71,1.65,4.37V101.25z"/>
	<path id="XMLID_14_" class="st0" d="M64.04,33.77c-3.2,2.44-5.36,5.72-6.48,9.84l-5.91,21.56h42.79V30.11H75.3   C71,30.11,67.25,31.33,64.04,33.77z"/>
</g>
<g id="XMLID_3_">
	<path id="XMLID_4_" d="M162.7,95.51c-5.01-4.92-7.52-11.75-7.52-20.49c0-8.73,2.86-15.54,8.57-20.43   c5.71-4.89,13.91-7.33,24.58-7.33c5.21,0,10.62,0.58,16.23,1.75c5.61,1.17,9.83,2.6,12.67,4.29v49.92c0,8.01-2.64,13.94-7.92,17.76   c-5.28,3.83-12.7,5.74-22.24,5.74s-16.89-1.19-22.05-3.58c-5.16-2.39-7.74-6.33-7.74-11.83c0-0.97,0.31-1.77,0.94-2.4   c0.63-0.63,1.43-0.94,2.4-0.94h8.03c2.59,0,4.65,0.95,6.2,2.86c1.98,2.44,5.49,3.67,10.54,3.67c5.05,0,8.51-0.83,10.38-2.48   c1.87-1.65,2.8-4.58,2.8-8.79v-2.53c-5.75,1.47-11.12,2.21-16.12,2.21C174.3,102.9,167.71,100.44,162.7,95.51z M187.2,60.31   c-8.52-0.04-12.78,4.88-12.78,14.74c0,9.87,4.15,14.8,12.45,14.8c3.45,0,7.35-0.54,11.7-1.62V61.5   C195.49,60.67,191.7,60.27,187.2,60.31z"/>
	<path id="XMLID_7_" d="M264.73,62.03l-8.3-0.32c-4.85,0-9.49,2.66-13.91,7.98v34.45c0,0.97-0.32,1.76-0.94,2.37   c-0.63,0.61-1.41,0.92-2.35,0.92h-12.08c-0.97,0-1.76-0.31-2.37-0.92c-0.61-0.61-0.92-1.4-0.92-2.37V51.68   c0-0.97,0.31-1.77,0.94-2.4c0.63-0.63,1.41-0.94,2.35-0.94h12.08c0.97,0,1.76,0.32,2.37,0.94c0.61,0.63,0.92,1.43,0.92,2.4v3.4   c3.67-2.66,7.2-4.63,10.59-5.9c3.4-1.28,7.84-1.91,13.34-1.91c0.97,0,1.77,0.31,2.4,0.94c0.63,0.63,0.94,1.41,0.94,2.35v8.19   c0,0.97-0.32,1.76-0.94,2.37c-0.63,0.61-1.43,0.92-2.4,0.92H264.73z"/>
	<path id="XMLID_10_" d="M270.88,82.57V51.68c0-0.97,0.31-1.77,0.94-2.4c0.63-0.63,1.41-0.94,2.35-0.94h12.08   c0.93,0,1.72,0.32,2.35,0.94c0.63,0.63,0.94,1.43,0.94,2.4v30.89c0,8.63,3.41,12.94,10.24,12.94c4.49,0,9.33-2.59,14.5-7.76V51.68   c0-0.97,0.31-1.77,0.94-2.4c0.63-0.63,1.41-0.94,2.34-0.94h12.02c0.97,0,1.77,0.32,2.4,0.94c0.63,0.63,0.94,1.43,0.94,2.4v52.45   c0,0.94-0.31,1.72-0.94,2.35c-0.63,0.63-1.43,0.94-2.4,0.94h-12.02c-0.93,0-1.72-0.31-2.34-0.94c-0.63-0.63-0.94-1.41-0.94-2.35   v-3.45c-6.18,5.21-12.77,7.82-19.76,7.82c-6.99,0-12.68-2.13-17.06-6.39C273.08,97.86,270.88,91.34,270.88,82.57z"/>
	<path id="XMLID_32_" d="M339.57,122.31V51.68c0-0.97,0.31-1.77,0.94-2.4c0.63-0.63,1.41-0.94,2.34-0.94h10.41   c0.93,0,1.72,0.32,2.34,0.94c0.63,0.63,0.94,1.43,0.94,2.4v1.62c5.68-4.02,12.27-6.04,19.78-6.04c7.51,0,13.78,2.65,18.81,7.95   c5.03,5.3,7.55,12.88,7.55,22.75c0,9.87-2.61,17.42-7.82,22.67c-5.21,5.25-12.24,7.87-21.08,7.87c-4.57,0-9.76-0.92-15.58-2.75   v16.55c0,0.97-0.31,1.77-0.94,2.4c-0.63,0.63-1.41,0.94-2.35,0.94h-12.08c-0.93,0-1.72-0.31-2.34-0.94   C339.89,124.08,339.57,123.28,339.57,122.31z M358.23,93.3c4.64,1.47,8.54,2.21,11.7,2.21c4.92,0,8.42-1.4,10.49-4.21   c2.07-2.8,3.1-7.28,3.1-13.42c0-6.15-0.98-10.61-2.94-13.4c-1.96-2.78-4.89-4.18-8.79-4.18c-3.9,0-8.42,1.62-13.56,4.85V93.3z"/>
	<path id="XMLID_39_" d="M406.05,122.31V51.68c0-0.97,0.31-1.77,0.94-2.4c0.63-0.63,1.41-0.94,2.34-0.94h10.41   c0.93,0,1.72,0.32,2.34,0.94c0.63,0.63,0.94,1.43,0.94,2.4v1.62c5.68-4.02,12.27-6.04,19.78-6.04c7.51,0,13.78,2.65,18.81,7.95   c5.03,5.3,7.55,12.88,7.55,22.75c0,9.87-2.61,17.42-7.82,22.67c-5.21,5.25-12.24,7.87-21.08,7.87c-4.57,0-9.76-0.92-15.58-2.75   v16.55c0,0.97-0.31,1.77-0.94,2.4c-0.63,0.63-1.41,0.94-2.35,0.94h-12.08c-0.93,0-1.72-0.31-2.34-0.94   C406.37,124.08,406.05,123.28,406.05,122.31z M424.7,93.3c4.64,1.47,8.54,2.21,11.7,2.21c4.92,0,8.42-1.4,10.49-4.21   c2.07-2.8,3.1-7.28,3.1-13.42c0-6.15-0.98-10.61-2.94-13.4c-1.96-2.78-4.89-4.18-8.79-4.18c-3.9,0-8.42,1.62-13.56,4.85V93.3z"/>
	<path id="XMLID_45_" d="M477.49,100.63c-5.54-5.25-8.3-12.8-8.3-22.67c0-9.87,2.78-17.45,8.36-22.75c5.57-5.3,13.3-7.95,23.18-7.95   c9.88,0,17.59,2.58,23.13,7.74c5.53,5.16,8.3,12.55,8.3,22.18v3.07c0,0.97-0.32,1.77-0.94,2.4c-0.63,0.63-1.43,0.94-2.4,0.94   h-40.59c0.36,4.42,1.63,7.64,3.8,9.65c2.17,2.01,5.65,3.02,10.43,3.02c4.78,0,8.05-1.08,9.81-3.24c1.76-2.16,3.94-3.25,6.52-3.29   h8.03c0.97,0,1.77,0.32,2.4,0.94c0.63,0.63,0.94,1.43,0.94,2.4c0,10.32-9.83,15.45-29.49,15.42   C490.75,108.51,483.02,105.88,477.49,100.63z M488.11,72.22h25.07c-0.36-8.48-4.52-12.72-12.48-12.72   C492.74,59.5,488.54,63.74,488.11,72.22z"/>
</g>
</svg>