<svg id="Ebene_1" data-name="Ebene 1" xmlns="http://www.w3.org/2000/svg" xmlns:xlink="http://www.w3.org/1999/xlink" viewBox="0 0 531.64 178.26"><defs><style>.cls-1{fill:none;}.cls-2{clip-path:url(#clip-path);}</style><clipPath id="clip-path" transform="translate(-7.85 -184.8)"><rect class="cls-1" x="-122" y="29.04" width="792" height="520.46"/></clipPath></defs><g class="cls-2"><path d="M227.06,287.52H214.79v50.3q0,7-2.55,11.35t-9.92,4.4q-7.56,0-10.12-4.4t-2.56-11.35V215.75q0-8.58,3.48-12.06t12.06-3.48H250A64.27,64.27,0,0,1,265,202q7.26,1.74,13.4,8.69a37.56,37.56,0,0,1,4.8,6.65,28.2,28.2,0,0,1,2.56,6.23,33,33,0,0,1,1,6.24c.13,2.11.2,4.33.2,6.64v13.91a58.63,58.63,0,0,1-1.53,14.11q-1.53,6.13-7.05,12.67a29.8,29.8,0,0,1-9.72,7.16,32.56,32.56,0,0,1-11.34,2.86l30.46,44q4.31,5.93,4.3,10.42a9,9,0,0,1-1.13,4.2,14.87,14.87,0,0,1-3,3.88,16.73,16.73,0,0,1-4.09,2.86A10.24,10.24,0,0,1,272.46,351a31.64,31.64,0,0,1-5.32-5.62Zm23.52-25.15q6.33,0,8.79-2.55c1.64-1.71,2.45-4.6,2.45-8.69V236.4c0-4-.81-6.78-2.45-8.48s-4.57-2.56-8.79-2.56H214.79v37Z" transform="translate(-7.85 -184.8)"/><path d="M361.61,352.55q-11.87,0-18.82-4.71t-12.06-15.13l-17-34.76a53.85,53.85,0,0,1-4.09-11.25,45.29,45.29,0,0,1-1.23-10.22A42.66,42.66,0,0,1,309.87,265a62.82,62.82,0,0,1,3.89-10.22l17-34.76q4.9-10.23,12-15t18.92-4.81h30.26q6.94,0,11.35,2.56t4.39,9.91q0,7.57-4.39,10.13t-11.35,2.55h-28a14.05,14.05,0,0,0-6.44,1.23q-2.36,1.23-4.6,5.52L337.68,263c-1.09,2.18-2,4.32-2.86,6.44a19.69,19.69,0,0,0,0,13.7q1.23,3.17,2.86,6.44l15.13,31.08q2.25,4.29,4.6,5.52a14.05,14.05,0,0,0,6.44,1.23h28q6.94,0,11.35,2.55t4.39,10.12q0,7.37-4.39,9.92t-11.35,2.56Z" transform="translate(-7.85 -184.8)"/><path d="M443.8,342.94a21.52,21.52,0,0,1-4.7,8,10,10,0,0,1-7.36,2.86q-7,0-10.13-3.88a12.55,12.55,0,0,1-3.17-8,15.15,15.15,0,0,1,.52-4c.33-1.3.78-2.69,1.33-4.2l44-121.66a26.5,26.5,0,0,1,5.21-9.1q3.38-3.78,9.51-3.78t9.51,3.78a26.67,26.67,0,0,1,5.21,9.1l44,121.66c.55,1.51,1,2.9,1.33,4.2a15.57,15.57,0,0,1,.51,4,12.5,12.5,0,0,1-3.17,8q-3.17,3.89-10.12,3.88a10,10,0,0,1-7.36-2.86,21.39,21.39,0,0,1-4.7-8l-7.77-21.68h-54.8Zm16.77-46.83h36.8L479,244.38Z" transform="translate(-7.85 -184.8)"/><rect x="154.63" width="4.44" height="178.26"/><path d="M93.7,349.52a9.31,9.31,0,1,1-9.31-9.3,9.3,9.3,0,0,1,9.31,9.3" transform="translate(-7.85 -184.8)"/><path d="M107.19,253.31a28.4,28.4,0,0,1-14-3.73L69.55,236.11a.86.86,0,0,0-1.28.74V272l-12.42,2.53a5.62,5.62,0,0,1-4.38-.9l-7.85-5.48a2.84,2.84,0,0,1-1.22-2.42l.31-9.66a5.62,5.62,0,0,0-1.36-3.86l-10-11.74L26.59,245l6.73,7.55a5.66,5.66,0,0,1,1.44,4l-.34,8.48A1.41,1.41,0,0,1,33,266.43l-9.79,0a5.67,5.67,0,0,1-4-1.65l-6.44-6.39-4.94,4.77,9.24,8.94a5.67,5.67,0,0,0,4,1.6l11.17-.17a2.88,2.88,0,0,1,1.61.47L49.07,284.1a8.56,8.56,0,0,0,6.09,1.32l13.11-2.14v47.46a5.68,5.68,0,0,0,2.79,4.88l4.51,2.66A14.29,14.29,0,0,1,98.7,349.52a14.75,14.75,0,0,1-.12,1.77,28.45,28.45,0,0,0,9.68,1.72h32.33v-99.7Z" transform="translate(-7.85 -184.8)"/><path d="M108.26,199.71a28.38,28.38,0,0,0-13.72,3.54L71.06,217.09A5.7,5.7,0,0,0,68.27,222v3a5.7,5.7,0,0,0,2.79,4.89l23.48,13.84a28.38,28.38,0,0,0,13.72,3.54h32.33V199.71Zm4,30.65a7.78,7.78,0,1,1,7.78-7.78,7.78,7.78,0,0,1-7.78,7.78" transform="translate(-7.85 -184.8)"/></g></svg>