<?xml version="1.0" encoding="UTF-8" standalone="no"?>
<!-- Generator: Adobe Illustrator 16.0.0, SVG Export Plug-In . SVG Version: 6.00 Build 0)  -->

<svg
   xmlns:dc="http://purl.org/dc/elements/1.1/"
   xmlns:cc="http://creativecommons.org/ns#"
   xmlns:rdf="http://www.w3.org/1999/02/22-rdf-syntax-ns#"
   xmlns:svg="http://www.w3.org/2000/svg"
   xmlns="http://www.w3.org/2000/svg"
   xmlns:sodipodi="http://sodipodi.sourceforge.net/DTD/sodipodi-0.dtd"
   xmlns:inkscape="http://www.inkscape.org/namespaces/inkscape"
   version="1.1"
   id="Ebene_1"
   x="0px"
   y="0px"
   width="510.099"
   height="410.43399"
   viewBox="0 0 510.099 410.43399"
   enable-background="new 0 0 612 792"
   xml:space="preserve"
   sodipodi:docname="rca.svg"
   inkscape:version="0.92.3 (2405546, 2018-03-11)"><metadata
   id="metadata75"><rdf:RDF><cc:Work
       rdf:about=""><dc:format>image/svg+xml</dc:format><dc:type
         rdf:resource="http://purl.org/dc/dcmitype/StillImage" /><dc:title></dc:title></cc:Work></rdf:RDF></metadata><defs
   id="defs73" /><sodipodi:namedview
   pagecolor="#ffffff"
   bordercolor="#666666"
   borderopacity="1"
   objecttolerance="10"
   gridtolerance="10"
   guidetolerance="10"
   inkscape:pageopacity="0"
   inkscape:pageshadow="2"
   inkscape:window-width="1920"
   inkscape:window-height="1051"
   id="namedview71"
   showgrid="false"
   fit-margin-top="0"
   fit-margin-left="0"
   fit-margin-right="0"
   fit-margin-bottom="0"
   inkscape:zoom="0.84281414"
   inkscape:cx="292.61609"
   inkscape:cy="179.93818"
   inkscape:window-x="0"
   inkscape:window-y="0"
   inkscape:window-maximized="1"
   inkscape:current-layer="Ebene_1" />
<rect
   x="166.825"
   y="242.31299"
   width="8.3439999"
   height="161.491"
   id="rect2" />
<path
   d="M 115.288,337.355 H 78.054 V 283.35 h 37.234 c 14.892,0 27.008,12.111 27.008,26.998 -0.001,14.892 -12.116,27.007 -27.008,27.007 z m -30.977,-6.257 h 30.977 c 11.441,0 20.75,-9.308 20.75,-20.749 0,-11.437 -9.309,-20.74 -20.75,-20.74 H 84.311 Z"
   id="path4"
   inkscape:connector-curvature="0" />
<path
   d="M 40.65,329.167 H 1.484 V 309.27 H 40.65 Z M 7.742,322.909 h 26.65 v -7.382 H 7.742 Z"
   id="path6"
   inkscape:connector-curvature="0" />
<path
   d="M 70.315,362.385 H 50.487 v -7.004 h 19.828 z m 0,-8.031 H 50.487 v -7.004 h 19.828 z"
   id="path8"
   inkscape:connector-curvature="0" />
<rect
   x="5.3129997"
   y="296.30499"
   width="75.869003"
   height="6.2579999"
   id="rect10" />
<polygon
   points="107.588,514.024 88.207,514.024 88.207,507.767 130.519,507.767 130.519,514.024 113.846,514.024 113.846,542.281 107.588,542.281 "
   id="polygon12"
   transform="translate(-50,-191)" />
<rect
   x="11.667999"
   y="387.03497"
   width="158.87601"
   height="6.2579999"
   id="rect14" />
<rect
   x="56.904999"
   y="358.78497"
   width="6.2579999"
   height="32.068001"
   id="rect16" />
<g
   id="g22"
   transform="translate(-50,-191)">
	<path
   d="m 110.436,508.704 c 1.314,0 2.388,1.078 2.388,2.389 0,1.316 -1.074,2.383 -2.388,2.383 -1.315,0 -2.388,-1.066 -2.388,-2.383 -0.001,-1.311 1.073,-2.389 2.388,-2.389 z"
   id="path18"
   inkscape:connector-curvature="0"
   style="clip-rule:evenodd;fill-rule:evenodd" />
	<path
   d="m 110.436,516.604 c -3.042,0 -5.517,-2.473 -5.517,-5.512 0,-3.042 2.475,-5.518 5.517,-5.518 3.042,0 5.517,2.476 5.517,5.518 0,3.04 -2.475,5.512 -5.517,5.512 z m 0,-6.257 c -0.408,0 -0.741,0.335 -0.741,0.746 0,0.415 0.325,0.74 0.741,0.74 0.416,0 0.741,-0.325 0.741,-0.74 -0.001,-0.411 -0.333,-0.746 -0.741,-0.746 z"
   id="path20"
   inkscape:connector-curvature="0" />
</g>
<g
   id="g28"
   transform="translate(-50,-191)">
	<path
   d="m 110.023,578.789 c 1.315,0 2.383,1.071 2.383,2.384 0,1.318 -1.068,2.394 -2.383,2.394 -1.312,0 -2.389,-1.075 -2.389,-2.394 0,-1.313 1.077,-2.384 2.389,-2.384 z"
   id="path24"
   inkscape:connector-curvature="0"
   style="clip-rule:evenodd;fill-rule:evenodd" />
	<path
   d="m 110.023,586.695 c -3.042,0 -5.518,-2.478 -5.518,-5.522 0,-3.04 2.476,-5.513 5.518,-5.513 3.04,0 5.512,2.473 5.512,5.513 0,3.045 -2.472,5.522 -5.512,5.522 z m 0,-6.257 c -0.411,0 -0.746,0.33 -0.746,0.735 0,0.411 0.334,0.745 0.746,0.745 0.415,0 0.74,-0.327 0.74,-0.745 0,-0.412 -0.325,-0.735 -0.74,-0.735 z"
   id="path26"
   inkscape:connector-curvature="0" />
</g>
<rect
   x="139.16701"
   y="307.22"
   width="28.721001"
   height="6.2579999"
   id="rect30" />
<path
   d="m 113,320.547 c -1.11,1.237 -2.317,2.155 -3.625,2.768 -1.304,0.619 -2.712,0.928 -4.229,0.928 -2.8,0 -5.023,-0.946 -6.664,-2.833 -1.331,-1.545 -1.992,-3.269 -1.992,-5.173 0,-1.685 0.546,-3.213 1.635,-4.578 1.087,-1.356 2.71,-2.559 4.874,-3.59 -1.229,-1.411 -2.054,-2.562 -2.459,-3.45 -0.416,-0.879 -0.62,-1.729 -0.62,-2.549 0,-1.644 0.647,-3.073 1.929,-4.289 1.287,-1.213 2.917,-1.813 4.861,-1.813 1.867,0 3.391,0.572 4.583,1.712 1.185,1.148 1.776,2.524 1.776,4.123 0,2.602 -1.718,4.826 -5.16,6.665 l 4.901,6.242 c 0.558,-1.094 1,-2.366 1.303,-3.803 l 3.485,0.746 c -0.596,2.39 -1.394,4.346 -2.421,5.886 1.26,1.667 2.681,3.073 4.275,4.207 l -2.262,2.667 c -1.351,-0.873 -2.751,-2.161 -4.19,-3.866 z m -6.83,-14.251 c 1.458,-0.855 2.403,-1.605 2.826,-2.258 0.431,-0.644 0.643,-1.358 0.643,-2.145 0,-0.933 -0.288,-1.689 -0.885,-2.278 -0.589,-0.591 -1.325,-0.893 -2.208,-0.893 -0.909,0 -1.665,0.294 -2.267,0.883 -0.603,0.58 -0.904,1.293 -0.904,2.14 0,0.425 0.11,0.868 0.325,1.341 0.212,0.463 0.547,0.952 0.978,1.479 z m 4.721,11.6 -6.154,-7.623 c -1.812,1.082 -3.044,2.089 -3.673,3.008 -0.638,0.931 -0.956,1.852 -0.956,2.758 0,1.103 0.449,2.256 1.325,3.443 0.883,1.199 2.13,1.794 3.75,1.794 1.004,0 2.05,-0.311 3.124,-0.947 1.081,-0.626 1.936,-1.438 2.584,-2.433 z"
   id="path32"
   inkscape:connector-curvature="0"
   style="clip-rule:evenodd;fill-rule:evenodd" />
<g
   id="g38"
   transform="translate(-50,-191)">
	<path
   d="m 296.747,472.879 c 4.863,-1.439 9.861,-1.655 15.212,-0.016 8.264,2.531 12.278,8.403 17.747,15.891 6.317,8.648 9.209,18.447 8.6,27.805 -0.216,3.354 1.559,10 3.779,17.742 l 45.579,62.366 h -12.285 l -33.014,-43.21 c -3.534,-4.627 -10.208,-5.524 -14.839,-1.982 v 0 c -4.624,3.531 -5.516,10.206 -1.979,14.829 l 23.19,30.363 h -15.604 l -25.818,-35.33 c -7.114,-4.49 -13.313,-8.245 -16.773,-8.915 -8.767,-1.689 -16.881,-6.678 -23.006,-15.053 -5.051,-6.91 -10.557,-16.395 -10.843,-24.385 -0.182,-4.996 1.239,-9.292 3.697,-13.158 l 11.775,16.109 7.706,10.543 12.983,-1.403 12.991,-1.4 5.28,-11.945 5.282,-11.948 -7.711,-10.549 z"
   id="path34"
   inkscape:connector-curvature="0"
   style="clip-rule:evenodd;fill-rule:evenodd" />
	<path
   d="m 387.877,596.775 h -12.552 l -0.032,-0.043 -33.014,-43.21 c -1.993,-2.609 -5.034,-4.106 -8.343,-4.106 -2.316,0 -4.51,0.741 -6.345,2.145 -2.214,1.69 -3.637,4.152 -4.008,6.934 -0.372,2.781 0.356,5.531 2.049,7.744 l 23.323,30.537 h -15.877 l -0.032,-0.045 -25.807,-35.313 c -6.81,-4.298 -13.212,-8.21 -16.719,-8.889 -9.164,-1.767 -17.143,-6.986 -23.073,-15.096 -3.922,-5.365 -10.549,-15.677 -10.863,-24.444 -0.171,-4.696 1.043,-9.021 3.713,-13.22 l 0.085,-0.134 0.094,0.128 19.443,26.602 25.85,-2.79 10.512,-23.779 -19.713,-26.976 0.147,-0.044 c 2.656,-0.786 5.188,-1.169 7.738,-1.169 2.504,0 5.039,0.389 7.536,1.153 7.97,2.441 12.024,8.004 17.157,15.046 l 0.646,0.885 c 6.179,8.458 9.24,18.357 8.62,27.875 -0.22,3.424 1.657,10.319 3.771,17.688 z m -12.444,-0.216 h 12.019 l -45.47,-62.229 c -2.121,-7.394 -4.006,-14.317 -3.783,-17.778 0.616,-9.467 -2.431,-19.316 -8.579,-27.734 l -0.646,-0.885 c -5.109,-7.01 -9.146,-12.546 -17.046,-14.966 -2.477,-0.759 -4.991,-1.144 -7.474,-1.144 -2.483,0 -4.947,0.365 -7.529,1.116 l 19.605,26.828 -0.025,0.058 -10.587,23.95 -0.062,0.007 -26.036,2.811 -19.424,-26.574 c -2.586,4.119 -3.763,8.361 -3.595,12.962 0.312,8.71 6.914,18.979 10.822,24.325 5.897,8.064 13.83,13.255 22.939,15.01 3.547,0.688 9.976,4.616 16.811,8.93 l 0.029,0.028 25.786,35.285 h 15.33 L 325.46,566.37 c -1.728,-2.259 -2.471,-5.065 -2.092,-7.903 0.379,-2.839 1.832,-5.352 4.092,-7.077 1.872,-1.432 4.111,-2.188 6.476,-2.188 3.376,0 6.479,1.527 8.515,4.191 z"
   id="path36"
   inkscape:connector-curvature="0" />
</g>
<path
   d="m 454.615,181.391 h -42.982 l -2.748,-31.535 h -9.863 l -2.759,31.535 H 353.57 L 376.13,27.12 h 55.361 z m -53.696,-57.452 h 5.806 L 403.89,89.994 Z"
   id="path40"
   inkscape:connector-curvature="0" />
<path
   d="m 301.474,57.694 v 22.709 h -39.189 v -26.31 c 0,-2.469 -0.514,-4.208 -1.505,-5.186 -1.033,-0.983 -2.674,-1.487 -4.974,-1.487 -2.111,0 -3.613,0.504 -4.553,1.521 -0.891,1.038 -1.359,2.747 -1.359,5.152 v 101.829 c 0,2.338 0.519,4.011 1.499,4.994 1.034,0.976 2.679,1.482 4.981,1.482 2.205,0 3.749,-0.473 4.595,-1.384 0.895,-0.923 1.316,-2.627 1.316,-5.092 v -39.28 h 39.189 v 35.483 c 0,13.567 -2.72,22.136 -8.117,25.642 -5.397,3.515 -17.649,5.289 -36.704,5.289 -19.62,0 -32.15,-1.774 -37.549,-5.321 -5.407,-3.569 -8.125,-12.105 -8.125,-25.609 V 57.694 c 0,-13.692 2.678,-22.264 8.028,-25.643 5.4,-3.39 17.745,-5.095 37.081,-5.095 19.716,0 32.199,1.772 37.507,5.282 5.253,3.512 7.879,12.019 7.879,25.456 z"
   id="path42"
   inkscape:connector-curvature="0"
   style="clip-rule:evenodd;fill-rule:evenodd" />
<path
   d="M 152.529,181.481 H 109.112 V 123.87 c 0,-0.788 -0.102,-2.188 -0.785,-2.709 -0.422,-0.311 -1.661,-0.879 -4.792,-0.894 v 61.215 H 59.984 V 28.083 h 48.849 c 17.095,0 28.306,1.987 34.272,6.076 6.34,4.339 9.423,13.156 9.423,26.954 V 80.32 c 0,9.013 -1.416,15.32 -4.327,19.28 -1.722,2.314 -4.096,4.293 -7.179,5.974 2.944,1.524 5.26,3.391 6.998,5.628 2.994,3.895 4.508,9.667 4.508,17.168 v 53.111 z M 103.536,92.406 c 0.053,0.002 0.101,0.003 0.141,0.003 3.803,0 4.668,-0.724 4.703,-0.755 0.042,-0.036 0.732,-0.675 0.732,-3.725 V 59.717 c 0,-3.811 -0.497,-5.151 -0.67,-5.502 -0.368,-0.174 -1.616,-0.612 -4.907,-0.661 v 38.852 z"
   id="path44"
   inkscape:connector-curvature="0" />
<path
   d="M 505.625,246.325 H 4.496 v -9.039 H 505.625 Z M 505.38,203.214 H 4.251 v -9.039 H 505.38 Z"
   id="path46"
   inkscape:connector-curvature="0" />
<rect
   x="338.548"
   y="241.68799"
   width="8.3439999"
   height="164.755"
   id="rect48" />
<path
   d="m 467.851,293.391 h -90.118 v -45.869 h 90.118 z m -83.861,-6.258 h 77.603 V 253.779 H 383.99 Z"
   id="path50"
   inkscape:connector-curvature="0" />
<path
   d="m 457.507,289.246 h -6.258 v -38.729 h 6.258 z m -63.799,-0.522 H 387.45 V 250.62 h 6.258 z"
   id="path52"
   inkscape:connector-curvature="0" />
<path
   d="m 421.491,402.234 -75.464,-46.263 75.464,-46.264 75.465,46.264 z M 358,355.972 l 63.491,38.923 63.492,-38.923 -63.492,-38.924 z"
   id="path54"
   inkscape:connector-curvature="0" />
<rect
   x="418.284"
   y="290.40799"
   width="6.2579999"
   height="24.297001"
   id="rect56" />
<rect
   x="418.284"
   y="398.93799"
   width="6.2579999"
   height="7.4380002"
   id="rect58" />
<rect
   x="487.57898"
   y="352.80499"
   width="19.483999"
   height="6.2579999"
   id="rect60" />
<path
   d="M 469.286,410.434 H 40.816 C 18.31,410.434 0,392.124 0,369.619 V 40.813 C 0,18.309 18.31,0 40.816,0 h 428.47 c 22.505,0 40.813,18.309 40.813,40.813 v 328.806 c 0.001,22.505 -18.308,40.815 -40.813,40.815 z M 40.816,9.039 C 23.294,9.039 9.039,23.293 9.039,40.813 v 328.806 c 0,17.521 14.255,31.775 31.777,31.775 h 428.47 c 17.521,0 31.774,-14.254 31.774,-31.775 V 40.813 c 0,-17.52 -14.254,-31.774 -31.774,-31.774 z"
   id="path62"
   inkscape:connector-curvature="0" />
<path
   d="m 382.229,356.774 c 0.76,-0.023 1.3,-0.236 1.619,-0.643 0.319,-0.401 0.48,-1.079 0.48,-2.024 0,-0.686 -0.146,-1.186 -0.438,-1.505 -0.295,-0.319 -0.752,-0.48 -1.375,-0.48 h -0.287 v 4.652 z m -3.786,9.104 v -17.565 h 4.983 c 1.517,0 2.651,0.477 3.399,1.43 0.753,0.958 1.127,2.396 1.127,4.317 0,2.211 -0.449,3.833 -1.352,4.869 -0.897,1.04 -2.304,1.561 -4.211,1.561 h -0.07 v 5.389 h -3.876 z m 19.345,-13.677 c -0.071,1.426 -0.146,2.722 -0.225,3.896 -0.083,1.174 -0.157,2.111 -0.225,2.809 l -0.705,6.973 h -4.526 l -1.879,-17.565 h 3.817 l 0.291,5.539 c 0.091,1.792 0.154,3.266 0.186,4.42 0.027,1.154 0.043,2.249 0.043,3.277 v 1.304 h 0.197 c 0.099,-1.859 0.2,-3.553 0.307,-5.077 0.103,-1.521 0.205,-2.829 0.304,-3.924 l 0.544,-5.539 h 3.856 l 0.544,5.539 c 0.106,1.095 0.212,2.402 0.314,3.924 0.106,1.524 0.205,3.218 0.296,5.077 h 0.196 v -1.304 c 0,-1.028 0.017,-2.123 0.052,-3.277 0.035,-1.154 0.095,-2.628 0.177,-4.42 l 0.292,-5.539 h 3.829 l -1.891,17.565 h -4.515 l -0.717,-6.98 c -0.067,-0.725 -0.142,-1.67 -0.225,-2.84 -0.079,-1.17 -0.153,-2.458 -0.225,-3.869 z m 10.52,13.677 v -17.565 h 5.484 l 0.622,4.708 c 0.099,0.839 0.189,1.722 0.264,2.644 0.079,0.925 0.139,1.871 0.186,2.84 h 0.106 c 0.059,-1.245 0.126,-2.305 0.193,-3.167 0.07,-0.867 0.153,-1.639 0.244,-2.316 l 0.61,-4.708 h 5.46 v 17.565 h -3.542 v -6.094 c 0,-1.714 0.021,-3.298 0.063,-4.743 0.042,-1.445 0.106,-2.797 0.189,-4.05 h -0.253 c -0.082,0.883 -0.192,1.883 -0.33,2.994 -0.135,1.11 -0.3,2.423 -0.501,3.932 l -1.063,7.961 h -2.344 l -1.017,-7.973 c -0.016,-0.15 -0.047,-0.387 -0.091,-0.717 -0.362,-2.802 -0.606,-4.865 -0.729,-6.197 h -0.264 c 0.082,1.253 0.149,2.604 0.193,4.05 0.047,1.445 0.07,3.029 0.07,4.743 v 6.094 h -3.55 z m 18.635,-5.724 h 13.827 v 2.297 h -13.827 z m 0,-4.964 h 13.827 v 2.297 h -13.827 z m 23.781,7.147 c 0.461,0 0.788,-0.39 0.984,-1.17 0.197,-0.784 0.296,-2.104 0.296,-3.967 0,-2.107 -0.091,-3.494 -0.276,-4.156 -0.185,-0.662 -0.52,-0.993 -1.004,-0.993 -0.48,0 -0.812,0.331 -0.997,0.993 -0.185,0.662 -0.275,2.049 -0.275,4.156 0,1.895 0.099,3.222 0.295,3.986 0.196,0.768 0.52,1.151 0.977,1.151 z m -0.024,3.924 c -1.789,0 -3.069,-0.757 -3.846,-2.273 -0.775,-1.517 -1.165,-4.046 -1.165,-7.583 0,-3.018 0.394,-5.181 1.178,-6.492 0.783,-1.312 2.06,-1.97 3.833,-1.97 1.769,0 3.053,0.662 3.849,1.985 0.796,1.324 1.193,3.475 1.193,6.453 0,3.525 -0.394,6.051 -1.182,7.583 -0.791,1.532 -2.076,2.297 -3.86,2.297 z m 13.321,-1.778 c 0,0.56 -0.165,0.974 -0.496,1.233 -0.331,0.264 -0.843,0.394 -1.532,0.394 -0.686,0 -1.193,-0.134 -1.521,-0.397 -0.328,-0.263 -0.488,-0.674 -0.488,-1.229 0,-0.563 0.161,-0.977 0.484,-1.244 0.323,-0.272 0.831,-0.406 1.524,-0.406 0.682,0 1.193,0.134 1.528,0.406 0.335,0.267 0.501,0.68 0.501,1.243 z m -3.495,-2.977 c -0.023,-0.24 -0.039,-0.414 -0.043,-0.521 -0.004,-0.107 -0.004,-0.213 -0.004,-0.311 0,-0.579 0.07,-1.127 0.213,-1.647 0.142,-0.516 0.457,-1.213 0.941,-2.084 0.122,-0.212 0.299,-0.52 0.531,-0.922 0.808,-1.397 1.21,-2.391 1.21,-2.978 0,-0.445 -0.138,-0.804 -0.414,-1.067 -0.279,-0.264 -0.653,-0.398 -1.122,-0.398 -0.532,0 -1.048,0.186 -1.557,0.556 -0.508,0.366 -1.028,0.941 -1.56,1.718 v -4.145 c 0.571,-0.591 1.205,-1.032 1.906,-1.327 0.697,-0.292 1.478,-0.438 2.332,-0.438 1.284,0 2.289,0.362 3.018,1.091 0.729,0.726 1.092,1.741 1.092,3.041 0,1.348 -0.722,3.046 -2.159,5.09 -0.248,0.347 -0.438,0.611 -0.567,0.796 -0.378,0.54 -0.654,1.067 -0.835,1.584 -0.182,0.516 -0.271,1.044 -0.271,1.579 0,0.04 0.004,0.103 0.012,0.186 0.008,0.087 0.012,0.149 0.012,0.197 z"
   id="path64"
   inkscape:connector-curvature="0"
   style="clip-rule:evenodd;fill-rule:evenodd" />
<path
   d="m 399.183,274.912 c 0.528,0.651 1.036,1.124 1.524,1.422 0.489,0.294 1.013,0.44 1.573,0.44 0.563,0 1.012,-0.139 1.342,-0.421 0.329,-0.278 0.496,-0.655 0.496,-1.128 0,-0.604 -0.563,-1.294 -1.688,-2.072 -0.373,-0.262 -0.663,-0.473 -0.861,-0.627 -1.032,-0.751 -1.739,-1.485 -2.124,-2.204 -0.386,-0.719 -0.576,-1.611 -0.576,-2.68 0,-1.691 0.405,-3.002 1.211,-3.931 0.806,-0.933 1.945,-1.397 3.419,-1.397 0.829,0 1.56,0.131 2.188,0.396 0.627,0.263 1.167,0.671 1.615,1.22 v 4.093 c -0.448,-0.579 -0.917,-1.004 -1.397,-1.278 -0.48,-0.27 -1.016,-0.405 -1.604,-0.405 -0.528,0 -0.938,0.107 -1.227,0.322 -0.29,0.21 -0.438,0.516 -0.438,0.909 0,0.667 0.572,1.373 1.712,2.116 0.301,0.194 0.536,0.345 0.698,0.452 0.993,0.707 1.68,1.414 2.064,2.12 0.386,0.703 0.576,1.597 0.576,2.676 0,1.851 -0.409,3.272 -1.224,4.261 -0.813,0.988 -1.98,1.485 -3.501,1.485 -0.782,0 -1.481,-0.124 -2.093,-0.374 -0.611,-0.246 -1.175,-0.631 -1.688,-1.151 v -4.244 z m 18.563,4.721 c -0.552,0.325 -1.08,0.568 -1.588,0.73 -0.509,0.163 -1.009,0.246 -1.505,0.246 -1.104,0 -1.914,-0.349 -2.438,-1.048 -0.523,-0.694 -0.786,-1.771 -0.786,-3.22 v -6.933 h -1.711 v -2.688 c 0.901,-0.675 1.668,-1.41 2.299,-2.204 0.632,-0.794 1.14,-1.659 1.521,-2.588 h 1.779 v 3.478 h 2.43 v 4.002 h -2.43 v 6.385 c 0,0.373 0.091,0.655 0.277,0.85 0.186,0.195 0.457,0.289 0.814,0.289 0.202,0 0.417,-0.051 0.639,-0.15 0.227,-0.1 0.457,-0.246 0.699,-0.44 z m 7.606,0.711 v -1.882 h -0.096 c -0.254,0.719 -0.596,1.255 -1.017,1.6 -0.425,0.346 -0.949,0.517 -1.576,0.517 -0.944,0 -1.651,-0.346 -2.116,-1.036 -0.464,-0.691 -0.698,-1.724 -0.698,-3.105 0,-0.611 0.067,-1.147 0.198,-1.604 0.131,-0.461 0.338,-0.861 0.615,-1.211 0.382,-0.488 1.04,-1.001 1.978,-1.537 0.179,-0.099 0.31,-0.175 0.396,-0.222 l 0.009,-0.012 c 1.342,-0.759 2.013,-1.414 2.013,-1.966 0,-0.286 -0.111,-0.517 -0.33,-0.69 -0.222,-0.175 -0.516,-0.263 -0.881,-0.263 -0.532,0 -1.092,0.167 -1.672,0.501 -0.583,0.333 -1.183,0.834 -1.803,1.5 v -3.863 c 0.572,-0.683 1.211,-1.183 1.906,-1.5 0.698,-0.318 1.509,-0.477 2.43,-0.477 1.43,0 2.478,0.389 3.152,1.167 0.675,0.782 1.013,2.005 1.013,3.673 v 10.41 z m -0.072,-6.908 c -0.163,0.162 -0.394,0.385 -0.688,0.663 -0.846,0.798 -1.267,1.484 -1.267,2.061 0,0.393 0.084,0.706 0.25,0.937 0.167,0.227 0.394,0.342 0.68,0.342 0.365,0 0.627,-0.155 0.785,-0.461 0.159,-0.306 0.239,-0.817 0.239,-1.54 v -2.002 z m 6.775,6.908 v -14.937 h 3.502 v 3.525 h 0.163 c 0.036,-1.286 0.219,-2.247 0.54,-2.874 0.321,-0.627 0.79,-0.941 1.413,-0.941 0.147,0 0.31,0.032 0.492,0.092 0.184,0.063 0.39,0.158 0.624,0.29 v 4.887 c -0.171,-0.123 -0.334,-0.214 -0.496,-0.273 -0.159,-0.06 -0.318,-0.088 -0.48,-0.088 -0.628,0 -1.097,0.307 -1.397,0.914 -0.303,0.607 -0.453,1.544 -0.453,2.811 v 6.595 h -3.908 z m 16.535,-0.711 c -0.553,0.325 -1.08,0.568 -1.589,0.73 -0.508,0.163 -1.008,0.246 -1.504,0.246 -1.104,0 -1.914,-0.349 -2.438,-1.048 -0.524,-0.694 -0.786,-1.771 -0.786,-3.22 v -6.933 h -1.711 v -2.688 c 0.901,-0.675 1.668,-1.41 2.299,-2.204 0.631,-0.794 1.14,-1.659 1.521,-2.588 h 1.778 v 3.478 h 2.431 v 4.002 h -2.431 v 6.385 c 0,0.373 0.092,0.655 0.278,0.85 0.186,0.195 0.456,0.289 0.813,0.289 0.203,0 0.418,-0.051 0.64,-0.15 0.227,-0.1 0.457,-0.246 0.699,-0.44 z"
   id="path66"
   inkscape:connector-curvature="0"
   style="clip-rule:evenodd;fill-rule:evenodd" />
<path
   d="m 25.609,221.045 v 8.273 H 22.264 V 210.64 h 6.296 c 2.112,0 3.631,0.414 4.559,1.239 0.928,0.825 1.394,2.162 1.394,4.014 0,1.684 -0.428,2.97 -1.287,3.854 -0.859,0.88 -2.153,1.378 -3.883,1.483 l 5.628,8.088 h -4.208 l -3.509,-5.303 c -0.397,-0.604 -0.722,-1.14 -0.981,-1.608 -0.256,-0.465 -0.477,-0.918 -0.664,-1.362 z m 0,-6.735 v 4.554 h 2.696 c 1.035,0 1.787,-0.181 2.256,-0.54 0.47,-0.36 0.706,-0.935 0.706,-1.718 0,-0.796 -0.236,-1.374 -0.71,-1.742 -0.473,-0.369 -1.226,-0.554 -2.252,-0.554 z m 26.37,12.344 c 1.054,0 1.863,-0.414 2.429,-1.244 0.568,-0.833 0.852,-2.015 0.852,-3.557 0,-1.684 -0.26,-2.902 -0.779,-3.66 -0.516,-0.759 -1.352,-1.136 -2.501,-1.136 -1.111,0 -1.936,0.369 -2.481,1.106 -0.546,0.732 -0.817,1.855 -0.817,3.359 0,1.671 0.283,2.944 0.844,3.82 0.563,0.877 1.38,1.312 2.453,1.312 z m 0,3.193 c -2.069,0 -3.662,-0.742 -4.769,-2.221 -1.107,-1.482 -1.661,-3.606 -1.661,-6.371 0,-2.543 0.553,-4.49 1.661,-5.844 1.107,-1.349 2.703,-2.022 4.792,-2.022 2.104,0 3.696,0.683 4.776,2.048 1.081,1.366 1.623,3.389 1.623,6.065 0,2.673 -0.558,4.733 -1.672,6.179 -1.114,1.446 -2.696,2.166 -4.75,2.166 z m 27.344,-8.274 c 0,-1.416 -0.263,-2.505 -0.791,-3.271 -0.523,-0.767 -1.268,-1.147 -2.23,-1.147 -1.058,0 -1.882,0.423 -2.466,1.265 -0.584,0.842 -0.878,2.027 -0.878,3.561 0,1.449 0.275,2.572 0.829,3.376 0.554,0.801 1.329,1.203 2.325,1.203 1.024,0 1.814,-0.436 2.371,-1.303 0.561,-0.868 0.84,-2.096 0.84,-3.684 z m -6.273,4.889 v 2.856 h -3.303 v -18.971 h 3.414 v 7.238 c 0.401,-1.45 0.958,-2.51 1.665,-3.184 0.71,-0.675 1.619,-1.014 2.73,-1.014 1.55,0 2.757,0.674 3.62,2.019 0.859,1.345 1.291,3.233 1.291,5.663 0,2.728 -0.477,4.868 -1.436,6.431 -0.958,1.563 -2.264,2.346 -3.91,2.346 -1,0 -1.859,-0.302 -2.585,-0.9 -0.723,-0.603 -1.219,-1.432 -1.486,-2.484 z m 26.508,0.192 c 1.054,0 1.863,-0.414 2.429,-1.244 0.568,-0.833 0.851,-2.015 0.851,-3.557 0,-1.684 -0.26,-2.902 -0.779,-3.66 -0.516,-0.759 -1.352,-1.136 -2.501,-1.136 -1.111,0 -1.936,0.369 -2.482,1.106 -0.546,0.732 -0.817,1.855 -0.817,3.359 0,1.671 0.283,2.944 0.844,3.82 0.564,0.877 1.382,1.312 2.455,1.312 z m 0,3.193 c -2.069,0 -3.662,-0.742 -4.769,-2.221 -1.108,-1.482 -1.661,-3.606 -1.661,-6.371 0,-2.543 0.553,-4.49 1.661,-5.844 1.107,-1.349 2.703,-2.022 4.792,-2.022 2.104,0 3.696,0.683 4.777,2.048 1.08,1.366 1.623,3.389 1.623,6.065 0,2.673 -0.558,4.733 -1.672,6.179 -1.114,1.446 -2.697,2.166 -4.751,2.166 z m 18.474,-4.822 v -7.527 h -2.059 v -2.405 c 0.836,-0.071 1.573,-0.489 2.211,-1.243 0.638,-0.759 1.222,-1.928 1.749,-3.507 h 1.501 v 3.573 h 3.959 v 3.582 h -3.959 v 6.308 c 0,1.182 0.122,1.974 0.37,2.371 0.245,0.402 0.676,0.604 1.294,0.604 0.435,0 0.825,-0.122 1.176,-0.369 0.351,-0.247 0.66,-0.62 0.928,-1.118 v 3.021 c -0.374,0.507 -0.848,0.888 -1.42,1.147 -0.573,0.256 -1.229,0.386 -1.97,0.386 -1.283,0 -2.234,-0.394 -2.852,-1.186 -0.619,-0.788 -0.928,-2.004 -0.928,-3.637 z m 29.15,2.253 c -0.557,0.83 -1.267,1.462 -2.126,1.906 -0.855,0.439 -1.81,0.662 -2.863,0.662 -1.959,0 -3.509,-0.733 -4.643,-2.195 -1.134,-1.466 -1.699,-3.468 -1.699,-6.003 0,-2.576 0.554,-4.599 1.657,-6.065 1.104,-1.462 2.635,-2.194 4.597,-2.194 1.939,0 3.383,0.615 4.33,1.852 0.947,1.235 1.42,3.12 1.42,5.658 0,0.227 -0.004,0.482 -0.011,0.759 -0.008,0.28 -0.023,0.695 -0.046,1.252 h -8.671 c 0.022,1.244 0.359,2.204 1.007,2.878 0.649,0.675 1.562,1.014 2.742,1.014 0.978,0 1.791,-0.209 2.444,-0.632 0.653,-0.419 1.275,-1.148 1.863,-2.179 v 3.287 z m -8.213,-7.339 h 6.705 c -0.022,-0.955 -0.336,-1.722 -0.939,-2.3 -0.607,-0.573 -1.409,-0.862 -2.41,-0.862 -0.997,0 -1.802,0.289 -2.417,0.862 -0.611,0.579 -0.924,1.345 -0.939,2.3 z m 20.391,9.379 v -15.402 h 3.188 v 3.988 h 0.115 l 0.088,-0.649 c 0.194,-1.425 0.531,-2.426 1.012,-3.004 0.481,-0.573 1.191,-0.862 2.13,-0.862 0.321,0 0.63,0.041 0.928,0.129 0.298,0.084 0.584,0.219 0.852,0.398 v 4.269 c -0.252,-0.335 -0.55,-0.586 -0.89,-0.754 -0.34,-0.168 -0.714,-0.251 -1.123,-0.251 -0.985,0 -1.71,0.447 -2.18,1.349 -0.469,0.9 -0.707,2.291 -0.707,4.172 v 6.618 h -3.413 z m 28.925,-2.06 c -0.447,0.816 -1.077,1.453 -1.886,1.906 -0.81,0.456 -1.714,0.683 -2.722,0.683 -1.799,0 -3.23,-0.771 -4.303,-2.309 -1.069,-1.537 -1.604,-3.606 -1.604,-6.208 0,-2.43 0.538,-4.36 1.611,-5.793 1.073,-1.433 2.513,-2.148 4.318,-2.148 0.955,0 1.833,0.18 2.639,0.544 0.806,0.364 1.455,0.88 1.947,1.542 v 4.369 c -0.389,-0.843 -0.924,-1.504 -1.611,-1.978 -0.687,-0.474 -1.439,-0.712 -2.26,-0.712 -1.153,0 -2.043,0.39 -2.665,1.173 -0.623,0.783 -0.936,1.897 -0.936,3.347 0,1.596 0.317,2.84 0.955,3.736 0.638,0.896 1.52,1.345 2.646,1.345 0.775,0 1.5,-0.285 2.176,-0.858 0.676,-0.574 1.241,-1.387 1.695,-2.434 z m 15.033,2.06 h -3.413 v -18.971 h 3.413 z m 15.428,-15.402 v 9.425 c 0,1.006 0.157,1.747 0.474,2.221 0.317,0.473 0.81,0.712 1.474,0.712 0.833,0 1.478,-0.406 1.932,-1.215 0.454,-0.809 0.683,-1.965 0.683,-3.46 v -7.683 h 3.391 v 15.402 h -3.078 v -3.623 c -0.306,1.319 -0.817,2.308 -1.531,2.966 -0.718,0.657 -1.642,0.988 -2.776,0.988 -1.409,0 -2.425,-0.494 -3.047,-1.479 -0.623,-0.984 -0.936,-2.644 -0.936,-4.964 v -9.291 h 3.414 z m 29.54,7.657 c 0,-1.416 -0.264,-2.505 -0.791,-3.271 -0.523,-0.767 -1.268,-1.147 -2.229,-1.147 -1.058,0 -1.883,0.423 -2.467,1.265 -0.584,0.842 -0.878,2.027 -0.878,3.561 0,1.449 0.275,2.572 0.829,3.376 0.554,0.801 1.329,1.203 2.325,1.203 1.023,0 1.814,-0.436 2.371,-1.303 0.561,-0.868 0.84,-2.096 0.84,-3.684 z m -6.274,4.889 v 2.856 h -3.303 v -18.971 h 3.414 v 7.238 c 0.401,-1.45 0.958,-2.51 1.665,-3.184 0.71,-0.675 1.619,-1.014 2.73,-1.014 1.55,0 2.757,0.674 3.62,2.019 0.859,1.345 1.291,3.233 1.291,5.663 0,2.728 -0.477,4.868 -1.435,6.431 -0.958,1.563 -2.265,2.346 -3.91,2.346 -1,0 -1.86,-0.302 -2.585,-0.9 -0.723,-0.603 -1.22,-1.432 -1.487,-2.484 z m 36.862,-5.132 h 4.093 l -1.184,-4.649 c -0.18,-0.721 -0.336,-1.398 -0.47,-2.031 -0.138,-0.637 -0.256,-1.27 -0.359,-1.897 -0.133,0.771 -0.263,1.457 -0.393,2.069 -0.126,0.607 -0.248,1.135 -0.367,1.574 z m -0.325,-10.689 h 4.968 l 5.178,18.678 h -3.502 l -1.286,-4.624 h -6.041 l -1.24,4.624 h -3.299 z m 28.352,18.677 v -2.664 c -0.432,1.064 -0.993,1.86 -1.684,2.392 -0.691,0.532 -1.513,0.801 -2.467,0.801 -1.203,0 -2.169,-0.406 -2.902,-1.224 -0.737,-0.813 -1.104,-1.876 -1.104,-3.195 0,-1.119 0.352,-2.045 1.058,-2.778 0.702,-0.732 1.955,-1.419 3.754,-2.057 0.244,-0.083 0.588,-0.196 1.026,-0.343 1.429,-0.457 2.139,-1.031 2.139,-1.718 0,-0.549 -0.222,-0.984 -0.66,-1.303 -0.439,-0.318 -1.039,-0.478 -1.799,-0.478 -0.867,0 -1.711,0.251 -2.527,0.754 -0.821,0.503 -1.589,1.244 -2.307,2.216 v -3.828 c 0.611,-0.779 1.401,-1.391 2.367,-1.835 0.966,-0.448 1.989,-0.67 3.07,-0.67 0.97,0 1.825,0.167 2.573,0.502 0.744,0.336 1.337,0.817 1.779,1.449 0.26,0.395 0.446,0.843 0.558,1.35 0.11,0.507 0.168,1.307 0.168,2.396 v 10.233 z m -0.099,-7.485 c -0.462,0.234 -1.1,0.532 -1.905,0.884 -1.871,0.825 -2.807,1.738 -2.807,2.735 0,0.499 0.161,0.909 0.481,1.228 0.32,0.319 0.729,0.478 1.229,0.478 0.936,0 1.672,-0.406 2.218,-1.219 0.543,-0.817 0.813,-1.927 0.813,-3.335 0,-0.201 0,-0.359 -0.004,-0.465 -0.003,-0.105 -0.01,-0.209 -0.025,-0.306 z m 25.011,5.425 c -0.446,0.816 -1.076,1.453 -1.886,1.906 -0.81,0.456 -1.715,0.683 -2.723,0.683 -1.798,0 -3.229,-0.771 -4.303,-2.309 -1.069,-1.537 -1.604,-3.606 -1.604,-6.208 0,-2.43 0.538,-4.36 1.611,-5.793 1.072,-1.433 2.512,-2.148 4.318,-2.148 0.954,0 1.832,0.18 2.638,0.544 0.806,0.364 1.455,0.88 1.947,1.542 v 4.369 c -0.389,-0.843 -0.924,-1.504 -1.611,-1.978 -0.687,-0.474 -1.439,-0.712 -2.26,-0.712 -1.153,0 -2.043,0.39 -2.665,1.173 -0.623,0.783 -0.936,1.897 -0.936,3.347 0,1.596 0.316,2.84 0.954,3.736 0.638,0.896 1.52,1.345 2.646,1.345 0.774,0 1.5,-0.285 2.177,-0.858 0.675,-0.574 1.24,-1.387 1.694,-2.434 v 3.795 z m 14.709,-9.732 c 0.313,-1.319 0.824,-2.304 1.531,-2.961 0.71,-0.653 1.626,-0.98 2.753,-0.98 1.416,0 2.436,0.49 3.058,1.466 0.623,0.98 0.937,2.627 0.937,4.939 v 9.328 h -3.392 v -9.425 c 0,-1.005 -0.16,-1.751 -0.484,-2.241 -0.324,-0.486 -0.821,-0.729 -1.481,-0.729 -0.836,0 -1.478,0.406 -1.925,1.215 -0.446,0.809 -0.672,1.964 -0.672,3.46 v 7.72 h -3.413 v -18.971 h 3.089 v 7.179 z m 30.96,9.752 c -0.558,0.83 -1.268,1.462 -2.127,1.906 -0.855,0.439 -1.81,0.662 -2.864,0.662 -1.958,0 -3.508,-0.733 -4.643,-2.195 -1.134,-1.466 -1.699,-3.468 -1.699,-6.003 0,-2.576 0.554,-4.599 1.657,-6.065 1.104,-1.462 2.635,-2.194 4.597,-2.194 1.94,0 3.384,0.615 4.33,1.852 0.947,1.235 1.421,3.12 1.421,5.658 0,0.227 -0.004,0.482 -0.012,0.759 -0.008,0.28 -0.023,0.695 -0.046,1.252 h -8.671 c 0.022,1.244 0.358,2.204 1.008,2.878 0.649,0.675 1.562,1.014 2.741,1.014 0.978,0 1.791,-0.209 2.444,-0.632 0.652,-0.419 1.275,-1.148 1.863,-2.179 v 3.287 z m -8.213,-7.339 h 6.705 c -0.022,-0.955 -0.336,-1.722 -0.939,-2.3 -0.606,-0.573 -1.408,-0.862 -2.409,-0.862 -0.996,0 -1.802,0.289 -2.417,0.862 -0.611,0.579 -0.925,1.345 -0.94,2.3 z m 28.367,9.379 v -9.425 c 0,-1.005 -0.16,-1.751 -0.484,-2.241 -0.324,-0.486 -0.82,-0.729 -1.481,-0.729 -0.836,0 -1.478,0.406 -1.925,1.215 -0.446,0.809 -0.672,1.964 -0.672,3.46 v 7.72 h -3.413 v -15.402 h 3.089 v 3.61 c 0.313,-1.319 0.825,-2.304 1.531,-2.961 0.71,-0.653 1.626,-0.98 2.753,-0.98 1.416,0 2.437,0.49 3.059,1.466 0.622,0.98 0.936,2.627 0.936,4.939 v 9.328 z m 38.068,-2.04 c -0.558,0.83 -1.268,1.462 -2.127,1.906 -0.854,0.439 -1.81,0.662 -2.863,0.662 -1.959,0 -3.509,-0.733 -4.644,-2.195 -1.134,-1.466 -1.698,-3.468 -1.698,-6.003 0,-2.576 0.553,-4.599 1.656,-6.065 1.104,-1.462 2.636,-2.194 4.598,-2.194 1.939,0 3.383,0.615 4.33,1.852 0.946,1.235 1.42,3.12 1.42,5.658 0,0.227 -0.004,0.482 -0.012,0.759 -0.007,0.28 -0.022,0.695 -0.045,1.252 h -8.672 c 0.023,1.244 0.359,2.204 1.008,2.878 0.649,0.675 1.562,1.014 2.742,1.014 0.978,0 1.791,-0.209 2.443,-0.632 0.653,-0.419 1.275,-1.148 1.863,-2.179 v 3.287 z m -8.213,-7.339 h 6.705 c -0.023,-0.955 -0.336,-1.722 -0.939,-2.3 -0.607,-0.573 -1.409,-0.862 -2.409,-0.862 -0.997,0 -1.803,0.289 -2.417,0.862 -0.612,0.579 -0.924,1.345 -0.94,2.3 z m 24.327,8.077 c 0,0.582 -0.145,1.006 -0.431,1.266 -0.287,0.264 -0.757,0.394 -1.405,0.394 -0.642,0 -1.107,-0.134 -1.401,-0.398 -0.294,-0.268 -0.443,-0.687 -0.443,-1.261 0,-0.586 0.149,-1.018 0.443,-1.285 0.294,-0.272 0.76,-0.407 1.401,-0.407 0.641,0 1.111,0.135 1.401,0.398 0.291,0.266 0.435,0.698 0.435,1.293 z m 16.008,1.302 -4.956,-18.678 h 3.624 l 2.607,10.188 c 0.214,0.8 0.401,1.663 0.558,2.589 0.156,0.925 0.29,1.938 0.404,3.041 0.191,-1.366 0.504,-2.903 0.939,-4.612 0.065,-0.256 0.115,-0.436 0.146,-0.54 l 2.649,-10.665 h 3.646 l -5.09,18.678 h -4.527 z m 23.033,-1.302 c 0,0.582 -0.145,1.006 -0.431,1.266 -0.287,0.264 -0.757,0.394 -1.405,0.394 -0.642,0 -1.107,-0.134 -1.401,-0.398 -0.294,-0.268 -0.443,-0.687 -0.443,-1.261 0,-0.586 0.149,-1.018 0.443,-1.285 0.294,-0.272 0.76,-0.407 1.401,-0.407 0.641,0 1.11,0.135 1.401,0.398 0.291,0.266 0.435,0.698 0.435,1.293 z"
   id="path68"
   inkscape:connector-curvature="0"
   style="clip-rule:evenodd;fill-rule:evenodd" />
</svg>